<svg xmlns="http://www.w3.org/2000/svg" viewBox="0 0 192.82 154.25"><defs><style>.cls-1{fill:#fff;}</style></defs><g id="Layer_2" data-name="Layer 2"><g id="Layer_1_copy_2" data-name="Layer 1 copy 2"><path class="cls-1" d="M96.41,45A22.49,22.49,0,1,0,73.92,22.49,22.48,22.48,0,0,0,96.41,45Zm0-38.56A16.07,16.07,0,1,1,80.34,22.49,16.1,16.1,0,0,1,96.41,6.42ZM191.67,132.5a51.52,51.52,0,0,0-15.56-8.32,19.26,19.26,0,0,0-9-33.91V83.55A12.85,12.85,0,0,0,154.25,70.7H135V55a3.2,3.2,0,0,0-1.55-2.75,76.58,76.58,0,0,0-17-7.1,3.2,3.2,0,0,0-2.69.41L96.41,57.18,79.06,45.53a3.2,3.2,0,0,0-2.69-.41,77.08,77.08,0,0,0-17,7.1A3.21,3.21,0,0,0,57.85,55V70.7H38.57A12.85,12.85,0,0,0,25.71,83.55v6.72a19.26,19.26,0,0,0-9,33.91,51,51,0,0,0-15.56,8.33A3.19,3.19,0,0,0,0,135V151H0a3.28,3.28,0,0,0,.94,2.27,3.24,3.24,0,0,0,2.28.94H54.63A3.23,3.23,0,0,0,57.85,151V135a3.2,3.2,0,0,0-1.16-2.46,50.88,50.88,0,0,0-15.55-8.33,19.26,19.26,0,0,0-9-33.91V83.55a6.43,6.43,0,0,1,6.43-6.43H93.2V90.27a19.27,19.27,0,0,0-9,33.91,50.88,50.88,0,0,0-15.55,8.33A3.19,3.19,0,0,0,67.49,135V151a3.21,3.21,0,0,0,3.21,3.21h51.42a3.21,3.21,0,0,0,3.21-3.21V135a3.17,3.17,0,0,0-1.15-2.46,51,51,0,0,0-15.55-8.33,19.27,19.27,0,0,0-9-33.91V77.12h54.63a6.44,6.44,0,0,1,6.43,6.43v6.72a19.27,19.27,0,0,0-9,33.91,51.23,51.23,0,0,0-15.55,8.32A3.24,3.24,0,0,0,135,135V151a3.19,3.19,0,0,0,3.21,3.21H189.6a3.2,3.2,0,0,0,2.28-.94,3.24,3.24,0,0,0,.94-2.27V135A3.24,3.24,0,0,0,191.67,132.5Zm-146,.5a49.13,49.13,0,0,1,5.16,3.1l.64.46v11.27h-45V136.56l.64-.46c3.61-2.54,12.28-7.58,21.8-7.56H29A37.23,37.23,0,0,1,45.62,133Zm-3.84-23.74A12.86,12.86,0,1,1,28.93,96.41,12.87,12.87,0,0,1,41.78,109.26ZM113.11,133a49.13,49.13,0,0,1,5.16,3.1l.64.46v11.27h-45V136.56l.64-.46c3.61-2.54,12.28-7.57,21.79-7.56h.13A37.3,37.3,0,0,1,113.11,133Zm-3.85-23.74A12.85,12.85,0,1,1,96.41,96.41,12.87,12.87,0,0,1,109.26,109.26ZM128.55,70.7H64.27V56.86c.66-.35,1.54-.8,2.61-1.3a76.64,76.64,0,0,1,9.86-3.84l17.88,12a3.24,3.24,0,0,0,3.58,0l17.88-12a76.64,76.64,0,0,1,9.86,3.84c1.07.5,1.94.95,2.61,1.3ZM151,109.26a12.86,12.86,0,1,1,12.86,12.86A12.87,12.87,0,0,1,151,109.26Zm35.35,38.57h-45V136.56l.64-.46c3.61-2.54,12.3-7.59,21.83-7.56h.06A37.06,37.06,0,0,1,180.59,133a47.46,47.46,0,0,1,5.16,3.1l.64.46Z"/></g></g></svg>