<svg xmlns="http://www.w3.org/2000/svg" viewBox="0 0 486.23 273.22"><defs><style>.cls-1{fill:#453D42;}.cls-2{fill:none;stroke:#fff;stroke-miterlimit:10;stroke-width:4px;}.cls-3{fill:#fff;}</style></defs><g id="Layer_2" data-name="Layer 2"><g id="Layer_1_copy_2" data-name="Layer 1 copy 2"><polygon class="cls-1" points="426.08 0 363.88 0 367.05 0 183.41 0 81.08 0 113.42 0 60.16 0 0 111.61 60.16 223.1 113.42 223.1 90.12 223.1 183.41 223.1 367.05 223.1 363.88 223.1 426.08 223.1 486.23 111.61 426.08 0"/><polygon class="cls-2" points="71.01 205.01 20.58 111.61 71.01 18.09 415.33 18.09 465.77 111.61 415.33 205.01 71.01 205.01"/><circle class="cls-3" cx="243.12" cy="231.16" r="42.06"/><path class="cls-1" d="M271.36,249.24H214.88a1.14,1.14,0,0,0-.8.33,1.11,1.11,0,0,0-.33.79v9a1.13,1.13,0,0,0,1.13,1.13h11.29a1.14,1.14,0,0,0,.8-.33,1.09,1.09,0,0,0,.33-.8v-7.91h31.63v7.91a1.14,1.14,0,0,0,1.13,1.13h11.3a1.13,1.13,0,0,0,1.13-1.13v-9a1.18,1.18,0,0,0-.33-.81A1.13,1.13,0,0,0,271.36,249.24Zm-46.32,9h-9v-6.78h9Zm36.15,0v-6.78h9v6.78Zm-5.64,0H230.69a1.13,1.13,0,0,0,0,2.26h24.86a1.13,1.13,0,0,0,0-2.26ZM252.16,256a1.13,1.13,0,0,0,0-2.26H234.08a1.13,1.13,0,0,0,0,2.26Zm-31.64-10.16V230a1.13,1.13,0,1,0-2.25,0v15.82a1.13,1.13,0,1,0,2.25,0Zm4.52,0V230a1.13,1.13,0,1,0-2.25,0v15.82a1.13,1.13,0,1,0,2.25,0Zm9,0V230a1.13,1.13,0,0,0-2.26,0v15.82a1.13,1.13,0,0,0,2.26,0Zm4.52,0V230a1.13,1.13,0,0,0-2.26,0v15.82a1.13,1.13,0,0,0,2.26,0Zm29.37,0V230a1.13,1.13,0,1,0-2.26,0v15.82a1.13,1.13,0,0,0,2.26,0Zm-4.52,0V230a1.13,1.13,0,0,0-2.26,0v15.82a1.13,1.13,0,0,0,2.26,0Zm-9,0V230a1.13,1.13,0,0,0-2.26,0v15.82a1.13,1.13,0,0,0,2.26,0Zm-4.52,0V230a1.13,1.13,0,1,0-2.26,0v15.82a1.13,1.13,0,1,0,2.26,0ZM272,220,243.73,202a1.12,1.12,0,0,0-1.22,0L214.27,220a1.12,1.12,0,0,0-.52,1v4.52a1.09,1.09,0,0,0,.33.8,1.12,1.12,0,0,0,.8.33h56.48a1.13,1.13,0,0,0,1.13-1.13V221A1.15,1.15,0,0,0,272,220Zm-28.85-15.78,24.38,15.6H218.73Zm27.11,20.12H216v-2.26h54.22Zm-13.7-8.86-12.8-8.19a1.12,1.12,0,0,0-1.22,0l-12.8,8.19a1.13,1.13,0,0,0,.61,2.08,1.07,1.07,0,0,0,.6-.17l12.2-7.81,12.19,7.81a1.13,1.13,0,0,0,1.22-1.91Z"/></g></g></svg>