<svg xmlns="http://www.w3.org/2000/svg" viewBox="0 0 308.11 354.08">
    <defs>
        <style>
            .cls-1 {
                fill: #ebebeb;
            }

            .cls-2 {
                fill: #4d4e82;
            }

            .cls-3 {
                fill: #fff;
            }

            .cls-4 {
                fill: #404040;
            }
        </style>
    </defs>
    <g id="Layer_2" data-name="Layer 2">
        <g id="Layer_1_copy_2" data-name="Layer 1 copy 2">
            <path class="cls-1"
                d="M248,318.13l3.94-7.41L304,338.41A154.09,154.09,0,0,0,170.2,116v57.86h-8.39V116A154.11,154.11,0,0,0,27.89,338.49l52.23-27.77,3.94,7.41L31.83,345.9A154.09,154.09,0,0,0,300,345.82Z"
                transform="translate(-11.85 -69.96)" />
            <path class="cls-2"
                d="M251.89,310.72l52,27.67C315.25,316,320,295.71,320,270A154,154,0,0,0,170.2,116v57.86h-4.28V270l83.91,44.62Z"
                transform="translate(-11.85 -69.96)" />
            <circle class="cls-3" cx="154.06" cy="200.03" r="121.43" />
            <path class="cls-4" d="M121.92,315.56V231.05c4.24,0,5.78-3,5.78-6.27h6.93v90.78Z"
                transform="translate(-11.85 -69.96)" />
            <path class="cls-4" d="M150.29,324.29h-7.58l23.23-108.1h7.58Z" transform="translate(-11.85 -69.96)" />
            <path class="cls-4"
                d="M195.2,317.2c-11.8,0-17.58-9-17.58-18.95V288.3H189v8.86c0,4.91,2.06,7.5,6.16,7.5s6.29-2.59,6.29-7V280c0-2.87-1.28-4.91-4.88-4.91h-5.9V264.31h5.9c3.6,0,4.88-2,4.88-5v-16.5c0-4.36-2.05-7.08-6.29-7.08s-6.16,2.72-6.16,7.49v9H177.62v-10c0-10.09,5.65-19.08,17.58-19.08,11.43,0,18.74,7.9,18.74,19.35v14c0,6.54-3.21,11.31-8.47,12.81,5.13,1.91,8.47,6,8.47,12.68v15.81C213.94,309.29,206.63,317.2,195.2,317.2Z"
                transform="translate(-11.85 -69.96)" />
            <path class="cls-2"
                d="M112,111.52l-8.62-22.67,1.53,6.76,3.52,17.27L105,114.19,96.25,98.9l-3.31-6.08,8.63,22.66-4,1.55L85.91,86.53l6.17-2.34,8.37,14.48,3,5.61L102,98.06,98.63,81.7l6.08-2.32,11.6,30.5Z"
                transform="translate(-11.85 -69.96)" />
            <path class="cls-2"
                d="M126.13,108.06c-4.3,1.06-7.88-1.33-9-5.75l-4.39-17.79c-1.08-4.37,1-8.21,5.26-9.27s7.9,1.38,9,5.76l4.39,17.78C132.49,103.21,130.43,107,126.13,108.06Zm-4-26.25A2.41,2.41,0,1,0,117.46,83L122,101.5a2.41,2.41,0,1,0,4.66-1.15Z"
                transform="translate(-11.85 -69.96)" />
            <path class="cls-2"
                d="M147.61,103.73c-1.88.26-2.88-1.58-3.23-4.1l-1-6.94c-.18-1.31-1-2.28-2.29-2.1l-2.38.33,1.91,13.64-4.84.68-4.53-32.31L139,71.84c3.38-.48,6.26,1.15,6.88,5.51l.8,5.73a4.5,4.5,0,0,1-2.24,5,4.59,4.59,0,0,1,3.6,4l.92,6.6a5.46,5.46,0,0,0,1.38,3.17l.2,1.45Zm-6.43-25.56c-.19-1.36-.8-2-1.94-1.86l-2.51.35,1.44,10.24,2.32-.33c1.19-.16,1.73-1,1.51-2.53Z"
                transform="translate(-11.85 -69.96)" />
            <path class="cls-2"
                d="M152.52,103.1l-1.44-32.6L163.33,70l.21,4.6-7.37.32.4,9,5.11-.23.19,4.31-5.11.23.44,9.93,7.37-.33.21,4.75Z"
                transform="translate(-11.85 -69.96)" />
            <path class="cls-2" d="M184,75.65l-2.27,27.79-4.88-.4,2.28-27.79-4.73-.38.39-4.74L189,71.3,188.6,76Z"
                transform="translate(-11.85 -69.96)" />
            <path class="cls-2"
                d="M198,105.83l2.46-13.49-5.08-.93-2.46,13.5L188.1,104,194,71.94l4.8.87-2.53,13.93,5.08.92,2.54-13.92,4.81.87-5.85,32.1Z"
                transform="translate(-11.85 -69.96)" />
            <path class="cls-2"
                d="M214.52,110l1-6.34-4.3-1.24-2.65,5.87-4.3-1.24,13.95-29.93,5.19,1.49-4.12,32.77Zm3.91-23.9L213,98.39l3.19.92Z"
                transform="translate(-11.85 -69.96)" />
            <path class="cls-2"
                d="M231.21,116.08l.73-15.65.28-5.27-7.38,18.36-4.11-1.65L232.89,81.6l4,1.62L235.8,98.87l-.43,5.26,7.45-18.54,4.07,1.63-12.17,30.27Z"
                transform="translate(-11.85 -69.96)" />
        </g>
    </g>
</svg>