<svg xmlns="http://www.w3.org/2000/svg" viewBox="0 0 308.61 309.06"><defs><style>.cls-1{fill:none;}.cls-1,.cls-4{stroke:#404040;stroke-miterlimit:10;stroke-width:2px;}.cls-2{fill:#404040;}.cls-3,.cls-4{fill:#fff;}</style></defs><g id="Layer_2" data-name="Layer 2"><g id="Layer_1_copy_2" data-name="Layer 1 copy 2"><circle class="cls-1" cx="154.16" cy="154.16" r="153.16"/><path class="cls-2" d="M214.91,13.1l-2.14-.89-58.61,94.33v4.32Z"/><path class="cls-2" d="M227,18.85c-.67-.35-1.34-.72-2-1.07l-70.8,114v4.33Z"/><path class="cls-2" d="M208.63,10.61c-.73-.27-1.47-.52-2.2-.78L154.16,93.94v4.33Z"/><path class="cls-2" d="M221,15.85c-.69-.33-1.37-.67-2.07-1L154.16,119.13v4.33Z"/><path class="cls-2" d="M243.93,29.37c-.62-.45-1.25-.87-1.88-1.31L166.13,150.25l3.37-1.09Z"/><path class="cls-2" d="M232.79,22.11c-.66-.39-1.31-.78-2-1.16L154.16,144.32v4.33Z"/><path class="cls-2" d="M238.44,25.61l-1.93-1.23L156.32,153.44l3.37-1.09Z"/><path class="cls-2" d="M167.31,1.54c-.86-.07-1.72-.12-2.58-.17l-10.57,17V22.7Z"/><path class="cls-2" d="M181.8,3.4c-.8-.14-1.61-.29-2.42-.42L154.16,43.56v4.33Z"/><path class="cls-2" d="M202.19,8.38c-.75-.24-1.51-.45-2.27-.68L154.16,81.35v4.33Z"/><path class="cls-2" d="M159.75,1.11c-.88,0-1.77,0-2.65-.05l-2.94,4.72v4.33Z"/><path class="cls-2" d="M195.57,6.45c-.77-.21-1.55-.41-2.32-.6l-39.09,62.9v4.33Z"/><path class="cls-2" d="M188.77,4.78c-.79-.17-1.57-.35-2.37-.51L154.16,56.16v4.32Z"/><path class="cls-2" d="M174.65,2.32c-.83-.11-1.66-.22-2.49-.31l-18,29V35.3Z"/><path class="cls-2" d="M249.26,33.38c-.6-.48-1.22-.93-1.82-1.39L175.93,147.07l3.37-1.1Z"/><path class="cls-2" d="M281.83,69.12c-.45-.7-.92-1.4-1.39-2.09l-35.87,57.74,3.37-1.1Z"/><path class="cls-2" d="M264.26,47c-.54-.56-1.08-1.14-1.63-1.7l-57.28,92.19,3.37-1.09Z"/><path class="cls-2" d="M259.43,42.21c-.57-.53-1.13-1.08-1.7-1.6L195.54,140.7l3.37-1.1Z"/><path class="cls-2" d="M254.42,37.66l-1.76-1.49L185.74,143.88l3.37-1.09Z"/><path class="cls-2" d="M268.93,52.11c-.53-.6-1.05-1.2-1.58-1.79l-52.2,84,3.37-1.09Z"/><path class="cls-2" d="M277.74,63.12c-.48-.66-1-1.3-1.48-1.95L234.76,128l3.37-1.09Z"/><path class="cls-2" d="M273.42,57.47c-.5-.63-1-1.25-1.53-1.87L225,131.14l3.37-1.1Z"/><path class="cls-3" d="M286.22,73.79C241.73,145.55,200.6,214.1,155.54,282.64"/><polygon class="cls-2" points="152.71 289.33 287.19 74.4 285.25 73.19 152.71 285.02 152.71 289.33"/><path class="cls-3" d="M288.91,82.45c-44.9,70-88.31,143.07-133.42,213.24"/><polygon class="cls-2" points="152.71 302.29 289.88 83.06 287.95 81.84 152.71 297.98 152.71 302.29"/><line class="cls-3" x1="292.58" y1="88.52" x2="154.97" y2="308.45"/><rect class="cls-2" x="94.06" y="197.34" width="259.44" height="2.29" transform="translate(-63.24 282.69) rotate(-57.92)"/><line class="cls-3" x1="295.78" y1="96.36" x2="163.45" y2="307.85"/><rect class="cls-2" x="104.88" y="200.96" width="249.48" height="2.29" transform="translate(-63.57 289.34) rotate(-57.92)"/><line class="cls-3" x1="299.35" y1="102.34" x2="171.09" y2="307.32"/><rect class="cls-2" x="114.32" y="203.69" width="241.8" height="2.29" transform="translate(-63.26 295.36) rotate(-57.92)"/><line class="cls-3" x1="302.04" y1="111" x2="180.05" y2="305.96"/><rect class="cls-2" x="126.05" y="207.34" width="229.99" height="2.29" transform="translate(-63.62 302.01) rotate(-57.92)"/><line class="cls-3" x1="303.65" y1="120.35" x2="189.23" y2="303.21"/><rect class="cls-2" x="138.59" y="210.64" width="215.71" height="2.29" transform="translate(-63.88 308.13) rotate(-57.92)"/><line class="cls-3" x1="305.49" y1="130.37" x2="198.52" y2="301.32"/><rect class="cls-2" x="151.18" y="214.71" width="201.66" height="2.29" transform="translate(-64.72 314.76) rotate(-57.92)"/><line class="cls-3" x1="306.71" y1="140.35" x2="208.42" y2="297.44"/><rect class="cls-2" x="164.91" y="217.75" width="185.31" height="2.29" transform="translate(-64.69 320.89) rotate(-57.92)"/><line class="cls-3" x1="307.64" y1="151.82" x2="219.46" y2="292.75"/><rect class="cls-2" x="180.43" y="221.14" width="166.24" height="2.29" transform="translate(-64.76 327.55) rotate(-57.92)"/><line class="cls-3" x1="306.96" y1="164.84" x2="230.86" y2="286.46"/><rect class="cls-2" x="197.17" y="224.51" width="143.47" height="2.29" transform="translate(-65.1 333.67) rotate(-57.92)"/><line class="cls-3" x1="305.57" y1="180.01" x2="244.22" y2="278.06"/><rect class="cls-2" x="217.06" y="227.9" width="115.66" height="2.29" transform="translate(-65.16 340.34) rotate(-57.92)"/><line class="cls-3" x1="301.92" y1="197.53" x2="258.84" y2="266.38"/><rect class="cls-2" x="239.77" y="230.81" width="81.21" height="2.29" transform="translate(-65.06 346.35) rotate(-57.92)"/><path class="cls-3" d="M242,129.62C214.31,175.26,184.6,221,155.59,267.78"/><polygon class="cls-2" points="152.71 274.54 243.01 130.22 241.07 129.01 152.71 270.23 152.71 274.54"/><path class="cls-3" d="M232.79,132.28c-27.62,38.41-48.19,81.82-77,121.54"/><polygon class="cls-2" points="152.71 260.79 233.75 132.89 231.82 131.67 152.71 256.52 152.71 260.79"/><circle class="cls-4" cx="154.16" cy="154.16" r="105.33"/></g></g></svg>