<svg xmlns="http://www.w3.org/2000/svg" viewBox="0 0 357.98 255.7"><g id="Layer_2" data-name="Layer 2"><g id="desktop-tablet"><path d="M358,153.42a37.49,37.49,0,0,0-20.69-33.48l-32.07-16-31-62a6.37,6.37,0,0,0-5.71-3.52V32a19.18,19.18,0,0,0-38.36,0v6.4H217.35V25.57A25.57,25.57,0,0,0,191.77,0H25.57A25.55,25.55,0,0,0,0,25.57V211a19.16,19.16,0,0,0,19.17,19.16h34.2a38.3,38.3,0,0,0,72.24,0H245.15a38.3,38.3,0,0,0,72.25,0h15A25.57,25.57,0,0,0,358,204.56ZM277.32,76.7l12.79,25.59h-60V76.7ZM242.92,32a6.39,6.39,0,1,1,12.78,0v6.4H242.92ZM51.14,217.34h-32A6.41,6.41,0,0,1,12.78,211V191.77H61A38.17,38.17,0,0,0,51.14,217.34ZM89.5,242.92a25.57,25.57,0,0,1-.06-51.14h.12a25.57,25.57,0,0,1-.06,51.14Zm153.42-25.58H127.84A38.21,38.21,0,0,0,118,191.77h134.7A38.21,38.21,0,0,0,242.92,217.34Zm38.35,25.58a25.57,25.57,0,0,1-.06-51.14h.13a25.57,25.57,0,0,1-.07,51.14Zm63.93-38.36a12.82,12.82,0,0,1-12.79,12.79H319.63a38.23,38.23,0,0,0-9.83-25.57h35.4ZM332.41,166.2H345.2V179H12.78V25.57A12.81,12.81,0,0,1,25.57,12.78h166.2a12.8,12.8,0,0,1,12.79,12.79V44.74A6.38,6.38,0,0,0,211,51.13h53.58l6.4,12.8H223.74a6.35,6.35,0,0,0-6.39,6.38v38.36a6.37,6.37,0,0,0,6.39,6.39H299l32.63,16.32a24.71,24.71,0,0,1,13.62,22H332.41a6.39,6.39,0,1,0,0,12.78ZM102.28,38.34a51.15,51.15,0,1,0,51.14,51.15A51.17,51.17,0,0,0,102.28,38.34Zm0,89.51a38.36,38.36,0,1,1,38.36-38.36A38.44,38.44,0,0,1,102.28,127.85ZM121.46,83.1H108.67V70.32a6.39,6.39,0,1,0-12.78,0V83.1H83.11a6.39,6.39,0,1,0,0,12.78H95.89v12.79a6.39,6.39,0,1,0,12.78,0V95.88h12.79a6.39,6.39,0,0,0,0-12.78Z" style="fill:#404040"/></g></g></svg>