<?xml version="1.0" encoding="utf-8"?>
<!-- Generator: Adobe Illustrator 25.4.1, SVG Export Plug-In . SVG Version: 6.00 Build 0)  -->
<svg version="1.1" id="Layer_1" xmlns="http://www.w3.org/2000/svg" xmlns:xlink="http://www.w3.org/1999/xlink" x="0px"
	y="0px" viewBox="0 0 637 478.7" style="enable-background:new 0 0 637 478.7;" xml:space="preserve">
	<style type="text/css">
		.st0 {
			fill: #273147;
		}

		.st1 {
			opacity: 0.3;
			fill: none;
		}

		.st2 {
			fill: #4d4e82;
			stroke: #4d4e82;
			stroke-width: 1.5;
			stroke-miterlimit: 10;
		}
	</style>
	<g>
		<path class="st0" d="M226.2,75.3c-2.3-8.3-8.5-15.7-17-20.3c-1.3-0.7-3.3-1.4-5.9-2.4c-2.8-1-6.3-2.2-9.9-3.9
		c-0.2-0.1-0.4-0.2-0.7-0.3c5.1-3.8,9-8.1,11.7-12.7c2.1-3.7,3.3-8.1,3.3-12.4c0-11.2-9.1-20.4-20.4-20.4C176.1,3,167,12.1,167,23.4
		c0,4.6,1.7,10.2,4.4,14.4c2.6,4,6.1,7.7,10.2,10.8c-1.2,0.7-2.4,1.3-3.5,1.8c-1.7,0.8-3.4,1.5-5.3,2.2c-1.9,0.7-3.8,1.4-5.7,2.3
		c-8.3,4-14.8,11.6-17.2,20.3c-0.7,2.6-1.2,5.2-1.3,7.6c-0.3,4.9-0.2,9.9-0.1,14.7c0,2.3,0.1,4.6,0.1,6.9c0,5.1,0,8,0,12l0,13.1
		c0,7,5.7,12.8,12.8,12.8h2v64.3c0,7.7,6.3,14,14,14c4.5,0,8.5-2.1,11-5.4c2.6,3.3,6.6,5.4,11,5.4c7.7,0,14-6.3,14-14v-24.4l0-14.6
		v-25.2h1.3c7,0,12.8-5.7,12.8-12.8l0-13.1c0-4,0-6.9,0-12c0-2.3,0-4.6,0.1-6.9c0.1-4.8,0.2-9.8-0.1-14.7
		C227.4,80.5,226.9,77.9,226.2,75.3z M176.4,34.5c-2.1-3.2-3.5-7.7-3.5-11.1c0-8,6.5-14.4,14.4-14.4c8,0,14.4,6.5,14.4,14.4
		c0,3.2-0.9,6.6-2.5,9.4c-2.7,4.6-6.8,8.8-12.2,12.5C182.8,42.3,179,38.5,176.4,34.5z M221.7,97.4c0,2.4-0.1,4.7-0.1,7
		c0,5.1,0,8,0,12l0,13.1c0,3.8-3.1,6.8-6.8,6.8h-1.3V82c0-1.6-1.3-3-3-3c-1.6,0-3,1.3-3,3l0,124.6c0,4.4-3.6,8.1-8.1,8.1
		c-4.4,0-8.1-3.6-8.1-8.1v-64.1v-7.9c0-1.6-1.3-3-3-3c-1.6,0-3,1.3-3,3v7.9v64.1c0,4.4-3.6,8.1-8.1,8.1c-4.4,0-8.1-3.6-8.1-8.1V82
		c0-1.6-1.3-3-3-3c-1.6,0-3,1.3-3,3v54.4h-2c-3.8,0-6.8-3.1-6.8-6.8l0-13.1c0-4,0-6.9,0-12c0-2.3,0-4.7-0.1-7
		c-0.1-4.7-0.2-9.5,0.1-14.2c0.1-1.9,0.5-4.1,1.1-6.4c2-7.1,7.2-13.3,14-16.5c1.7-0.8,3.4-1.5,5.2-2.2c1.9-0.7,3.8-1.5,5.7-2.4
		c2-0.9,4.1-2.1,6.4-3.5c1.3,0.7,2.6,1.4,3.9,2c3.9,1.7,7.4,3,10.3,4c2.2,0.8,4.2,1.5,5.1,2c7.1,3.8,12.3,9.9,14.1,16.6
		c0.6,2.2,1,4.4,1.1,6.4C221.9,87.9,221.8,92.7,221.7,97.4z" />
		<g>
			<path class="st1" d="M97.2,130.7c-0.8,0.2-1.7,0.3-2.5,0.3c-1.2,0-2.3-0.2-3.5-0.6c2.1,8.4,3.7,15.1,4.2,17.1
			c1.7,6.8,0.5,9.4-0.7,10.9c-1.4,1.8-3.8,2.7-7,2.7c-1.7,0-6,0-8.7,0v46.2c0,8.4-6.6,12.8-13.2,12.8c-4.2,0-8.4-1.8-10.9-5.3
			c-2.5,3.5-6.7,5.3-10.9,5.3c-6.5,0-13.2-4.4-13.2-12.8v-46.2c-2.7,0-7.1,0-8.7,0c-3.2,0-5.6-0.9-7-2.7c-1.2-1.5-2.3-4.2-0.7-10.9
			c0.5-2,2.1-8.7,4.2-17.1c-1.1,0.4-2.3,0.6-3.4,0.6c-0.8,0-1.7-0.1-2.6-0.3c-5.1-1.3-9.2-6.3-7.5-13.5c0.7-2.7,1.8-7.1,3.1-12.2
			c2.1-8.1,4.7-18.1,7-27.4c2.1-8.4,5.7-14.5,11.2-18.7c4.8-3.7,10.4-5.5,15.8-7.3c2.8-0.9,5.4-1.8,8-2.9c-1.7-1.2-3.8-2.9-6-5
			c-6.3-6.2-9.7-13.1-9.7-20c0-11.2,9.1-20.3,20.3-20.3c11.2,0,20.3,9.1,20.3,20.3c0,0.8,0,1.5-0.1,2.3c0.3,0,0.6,0,0.8,0
			c3.1,0,6-0.9,8.6-2.5c1.1-0.7,2.5-0.4,3.2,0.7c0.7,1.1,0.4,2.5-0.7,3.2c-3.3,2.1-7.1,3.2-11.1,3.2c-0.6,0-1.2,0-1.8-0.1
			c-1.5,4.5-4.4,9-8.6,13.2c-2.1,2.1-4.3,3.8-6,5c2.5,1.1,5.2,2,8,2.9c5.4,1.7,11,3.6,15.8,7.3c5.5,4.2,9.1,10.3,11.2,18.7
			c2.3,9.2,4.9,19.3,7,27.4c1.3,5.1,2.5,9.6,3.1,12.2C106.5,124.4,102.3,129.4,97.2,130.7z" />
			<path class="st2" d="M104.7,117.2c-0.7-2.7-1.8-7.1-3.1-12.2c-2.1-8.1-4.7-18.1-7-27.4c-2.1-8.4-5.7-14.5-11.2-18.7
			c-4.8-3.7-10.4-5.5-15.8-7.3c-2.8-0.9-5.4-1.8-8-2.9c1.7-1.2,3.8-2.9,6-5c4.2-4.2,7.1-8.6,8.6-13.2c0.6,0.1,1.2,0.1,1.8,0.1
			c3.9,0,7.8-1.1,11.1-3.2c1.1-0.7,1.4-2.1,0.7-3.2c-0.7-1.1-2.1-1.4-3.2-0.7c-2.6,1.6-5.5,2.5-8.6,2.5c-0.3,0-0.6,0-0.8,0
			c0.1-0.8,0.1-1.5,0.1-2.3c0-11.2-9.1-20.3-20.3-20.3s-20.3,9.1-20.3,20.3c0,6.8,3.4,13.7,9.7,20c2.1,2.1,4.3,3.8,6,5
			c-2.5,1.1-5.2,2-8,2.9c-5.4,1.7-11,3.6-15.8,7.3c-5.5,4.2-9.1,10.3-11.2,18.7c-2.3,9.2-4.9,19.3-7,27.4c-1.3,5.1-2.5,9.6-3.1,12.2
			c-1.8,7.2,2.4,12.2,7.5,13.5c0.8,0.2,1.7,0.3,2.5,0.3c1.2,0,2.3-0.2,3.4-0.6c-2.1,8.4-3.7,15.1-4.2,17.1
			c-1.7,6.8-0.5,9.4,0.7,10.9c1.4,1.8,3.8,2.8,7,2.8c1.7,0,6,0,8.7,0v46.2c0,8.4,6.6,12.8,13.2,12.8c4.2,0,8.4-1.8,10.9-5.3
			c2.5,3.5,6.7,5.3,10.9,5.3c6.5,0,13.2-4.4,13.2-12.8v-46.2c2.7,0,7.1,0,8.7,0c3.2,0,5.6-0.9,7-2.8c1.2-1.5,2.4-4.2,0.7-10.9
			c-0.5-2-2.1-8.7-4.2-17.1c1.1,0.4,2.3,0.6,3.5,0.6c0.9,0,1.7-0.1,2.5-0.3C102.3,129.4,106.5,124.4,104.7,117.2z M70.8,23.8
			c0,0.5,0,0.9-0.1,1.3c-6.1-2.2-10.5-8.1-10.5-14.9c0-0.4,0-0.8,0.1-1.2C66.4,11.1,70.8,16.9,70.8,23.8z M39.3,23.8
			c0-8.7,7.1-15.7,15.7-15.7c0.2,0,0.5,0,0.7,0c-0.1,0.7-0.1,1.4-0.1,2.1c0,9.1,5.9,16.8,14.1,19.5c-3,8.5-11.6,14.7-14.7,16.7
			C51.3,43.9,39.3,35.3,39.3,23.8z M96.1,126.2c-2.8,0.7-6-0.6-7.1-4.9c-4.6-18.6-9.9-40.1-10-40.5c0,0,0,0,0,0
			c-0.3-1.2-1.6-2-2.8-1.7c-0.6,0.2-2,0.9-1.7,2.8l0,0c0,0,0,0,0,0.1c0,0,0,0.1,0,0.1l7.6,30.7c3.6,14.4,8,32.3,8.9,35.9
			c0.9,3.6,1,6,0.2,7c-0.5,0.7-1.6,1-3.4,1c-2.5,0-11,0-11,0c0,0,0,0,0,0c-0.6,0-1.2,0.2-1.6,0.7c-0.4,0.4-0.7,1-0.7,1.6v48.5
			c0,5.7-4.3,8.2-8.6,8.2s-8.6-2.5-8.6-8.2v-48.1c0-1.3-1-2.3-2.3-2.3s-2.3,1-2.3,2.3v48.1c0,5.7-4.3,8.2-8.6,8.2s-8.6-2.5-8.6-8.2
			v-48.5c0-0.6-0.2-1.2-0.7-1.6c-0.4-0.4-1-0.7-1.6-0.7c0,0,0,0,0,0c0,0-8.5,0-11,0c-1.7,0-2.9-0.3-3.4-1c-0.8-1-0.7-3.4,0.2-7
			c0.9-3.5,5.3-21.4,8.9-35.9l7.6-30.7c0,0,0-0.1,0-0.1c0,0,0,0,0-0.1l0,0c0.4-1.9-1.1-2.6-1.7-2.8c-1.2-0.3-2.5,0.4-2.8,1.7
			c0,0,0,0,0,0c-0.1,0.4-5.4,21.9-10,40.5c-1.1,4.3-4.4,5.6-7.1,4.9c-2.8-0.7-5.2-3.4-4.1-7.9c0.6-2.6,1.8-7,3.1-12.2
			c2.1-8.1,4.7-18.2,7-27.4c1.8-7.4,4.9-12.6,9.5-16.2c4.2-3.2,9.1-4.8,14.4-6.5c3.7-1.2,7.5-2.4,11.2-4.3l0,0l0,0
			c3.6,1.9,7.4,3.1,11.2,4.3c5.3,1.7,10.2,3.3,14.4,6.5c4.7,3.6,7.7,8.7,9.5,16.2c2.3,9.3,4.9,19.3,7,27.4c1.3,5.1,2.5,9.5,3.1,12.2
			C101.3,122.8,99,125.5,96.1,126.2z" />
		</g>
		<path class="st0" d="M359.3,75.3c-2.3-8.3-8.5-15.7-17-20.3c-1.3-0.7-3.3-1.4-5.9-2.4c-2.8-1-6.3-2.2-9.9-3.9
		c-0.2-0.1-0.4-0.2-0.7-0.3c5.1-3.8,9-8.1,11.7-12.7c2.1-3.7,3.3-8.1,3.3-12.4c0-11.2-9.1-20.4-20.4-20.4C309.2,3,300,12.1,300,23.4
		c0,4.6,1.7,10.2,4.4,14.4c2.6,4,6.1,7.7,10.2,10.8c-1.2,0.7-2.4,1.3-3.5,1.8c-1.7,0.8-3.4,1.5-5.3,2.2c-1.9,0.7-3.8,1.4-5.7,2.3
		c-8.3,4-14.8,11.6-17.2,20.3c-0.7,2.6-1.2,5.2-1.3,7.6c-0.3,4.9-0.2,9.9-0.1,14.7c0,2.3,0.1,4.6,0.1,6.9c0,5.1,0,8,0,12l0,13.1
		c0,7,5.7,12.8,12.8,12.8h2v64.3c0,7.7,6.3,14,14,14c4.5,0,8.5-2.1,11-5.4c2.6,3.3,6.6,5.4,11,5.4c7.7,0,14-6.3,14-14v-24.4l0-14.6
		v-25.2h1.3c7,0,12.8-5.7,12.8-12.8l0-13.1c0-4,0-6.9,0-12c0-2.3,0-4.6,0.1-6.9c0.1-4.8,0.2-9.8-0.1-14.7
		C360.5,80.5,360,77.9,359.3,75.3z M309.5,34.5c-2.1-3.2-3.5-7.7-3.5-11.1c0-8,6.5-14.4,14.4-14.4c8,0,14.4,6.5,14.4,14.4
		c0,3.2-0.9,6.6-2.5,9.4c-2.7,4.6-6.8,8.8-12.2,12.5C315.9,42.3,312.1,38.5,309.5,34.5z M354.8,97.4c0,2.4-0.1,4.7-0.1,7
		c0,5.1,0,8,0,12l0,13.1c0,3.8-3.1,6.8-6.8,6.8h-1.3V82c0-1.6-1.3-3-3-3c-1.6,0-3,1.3-3,3l0,124.6c0,4.4-3.6,8.1-8.1,8.1
		c-4.4,0-8.1-3.6-8.1-8.1v-64.1v-7.9c0-1.6-1.3-3-3-3c-1.6,0-3,1.3-3,3v7.9v64.1c0,4.4-3.6,8.1-8.1,8.1c-4.4,0-8.1-3.6-8.1-8.1V82
		c0-1.6-1.3-3-3-3c-1.6,0-3,1.3-3,3v54.4h-2c-3.8,0-6.8-3.1-6.8-6.8l0-13.1c0-4,0-6.9,0-12c0-2.3,0-4.7-0.1-7
		c-0.1-4.7-0.2-9.5,0.1-14.2c0.1-1.9,0.5-4.1,1.1-6.4c2-7.1,7.2-13.3,14-16.5c1.7-0.8,3.4-1.5,5.2-2.2c1.9-0.7,3.8-1.5,5.7-2.4
		c2-0.9,4.1-2.1,6.4-3.5c1.3,0.7,2.6,1.4,3.9,2c3.9,1.7,7.4,3,10.3,4c2.2,0.8,4.2,1.5,5.1,2c7.1,3.8,12.3,9.9,14.1,16.6
		c0.6,2.2,1,4.4,1.1,6.4C354.9,87.9,354.9,92.7,354.8,97.4z" />
		<path class="st0" d="M492.4,75.3c-2.3-8.3-8.5-15.7-17-20.3c-1.3-0.7-3.3-1.4-5.9-2.4c-2.8-1-6.3-2.2-9.9-3.9
		c-0.2-0.1-0.4-0.2-0.7-0.3c5.1-3.8,9-8.1,11.7-12.7c2.1-3.7,3.3-8.1,3.3-12.4c0-11.2-9.1-20.4-20.4-20.4
		c-11.2,0-20.4,9.1-20.4,20.4c0,4.6,1.7,10.2,4.4,14.4c2.6,4,6.1,7.7,10.2,10.8c-1.2,0.7-2.4,1.3-3.5,1.8c-1.7,0.8-3.4,1.5-5.3,2.2
		c-1.9,0.7-3.8,1.4-5.7,2.3c-8.3,4-14.8,11.6-17.2,20.3c-0.7,2.6-1.2,5.2-1.3,7.6c-0.3,4.9-0.2,9.9-0.1,14.7c0,2.3,0.1,4.6,0.1,6.9
		c0,5.1,0,8,0,12l0,13.1c0,7,5.7,12.8,12.8,12.8h2v64.3c0,7.7,6.3,14,14,14c4.5,0,8.5-2.1,11-5.4c2.6,3.3,6.6,5.4,11,5.4
		c7.7,0,14-6.3,14-14v-24.4l0-14.6v-25.2h1.3c7,0,12.8-5.7,12.8-12.8l0-13.1c0-4,0-6.9,0-12c0-2.3,0-4.6,0.1-6.9
		c0.1-4.8,0.2-9.8-0.1-14.7C493.5,80.5,493.1,77.9,492.4,75.3z M442.6,34.5c-2.1-3.2-3.5-7.7-3.5-11.1c0-8,6.5-14.4,14.4-14.4
		c8,0,14.4,6.5,14.4,14.4c0,3.2-0.9,6.6-2.5,9.4c-2.7,4.6-6.8,8.8-12.2,12.5C448.9,42.3,445.2,38.5,442.6,34.5z M487.8,97.4
		c0,2.4-0.1,4.7-0.1,7c0,5.1,0,8,0,12l0,13.1c0,3.8-3.1,6.8-6.8,6.8h-1.3V82c0-1.6-1.3-3-3-3s-3,1.3-3,3l0,124.6
		c0,4.4-3.6,8.1-8.1,8.1c-4.4,0-8.1-3.6-8.1-8.1v-64.1v-7.9c0-1.6-1.3-3-3-3s-3,1.3-3,3v7.9v64.1c0,4.4-3.6,8.1-8.1,8.1
		c-4.4,0-8.1-3.6-8.1-8.1V82c0-1.6-1.3-3-3-3c-1.6,0-3,1.3-3,3v54.4h-2c-3.8,0-6.8-3.1-6.8-6.8l0-13.1c0-4,0-6.9,0-12
		c0-2.3,0-4.7-0.1-7c-0.1-4.7-0.2-9.5,0.1-14.2c0.1-1.9,0.5-4.1,1.1-6.4c2-7.1,7.2-13.3,14-16.5c1.7-0.8,3.4-1.5,5.2-2.2
		c1.9-0.7,3.8-1.5,5.7-2.4c2-0.9,4.1-2.1,6.4-3.5c1.3,0.7,2.6,1.4,3.9,2c3.9,1.7,7.4,3,10.3,4c2.2,0.8,4.2,1.5,5.1,2
		c7.1,3.8,12.3,9.9,14.1,16.6c0.6,2.2,1,4.4,1.1,6.4C488,87.9,487.9,92.7,487.8,97.4z" />
		<path class="st0" d="M625.4,75.3c-2.3-8.3-8.5-15.7-17-20.3c-1.3-0.7-3.3-1.4-5.9-2.4c-2.8-1-6.3-2.2-9.9-3.9
		c-0.2-0.1-0.4-0.2-0.7-0.3c5.1-3.8,9-8.1,11.7-12.7c2.1-3.7,3.3-8.1,3.3-12.4c0-11.2-9.1-20.4-20.4-20.4
		c-11.2,0-20.4,9.1-20.4,20.4c0,4.6,1.7,10.2,4.4,14.4c2.6,4,6.1,7.7,10.2,10.8c-1.2,0.7-2.4,1.3-3.5,1.8c-1.7,0.8-3.4,1.5-5.3,2.2
		c-1.9,0.7-3.8,1.4-5.7,2.3c-8.3,4-14.8,11.6-17.2,20.3c-0.7,2.6-1.2,5.2-1.3,7.6c-0.3,4.9-0.2,9.9-0.1,14.7c0,2.3,0.1,4.6,0.1,6.9
		c0,5.1,0,8,0,12l0,13.1c0,7,5.7,12.8,12.8,12.8h2v64.3c0,7.7,6.3,14,14,14c4.5,0,8.5-2.1,11-5.4c2.6,3.3,6.6,5.4,11,5.4
		c7.7,0,14-6.3,14-14v-24.4l0-14.6v-25.2h1.3c7,0,12.8-5.7,12.8-12.8l0-13.1c0-4,0-6.9,0-12c0-2.3,0-4.6,0.1-6.9
		c0.1-4.8,0.2-9.8-0.1-14.7C626.6,80.5,626.1,77.9,625.4,75.3z M575.6,34.5c-2.1-3.2-3.5-7.7-3.5-11.1c0-8,6.5-14.4,14.4-14.4
		c8,0,14.4,6.5,14.4,14.4c0,3.2-0.9,6.6-2.5,9.4c-2.7,4.6-6.8,8.8-12.2,12.5C582,42.3,578.2,38.5,575.6,34.5z M620.9,97.4
		c0,2.4-0.1,4.7-0.1,7c0,5.1,0,8,0,12l0,13.1c0,3.8-3.1,6.8-6.8,6.8h-1.3V82c0-1.6-1.3-3-3-3s-3,1.3-3,3l0,124.6
		c0,4.4-3.6,8.1-8.1,8.1c-4.4,0-8.1-3.6-8.1-8.1v-64.1v-7.9c0-1.6-1.3-3-3-3c-1.6,0-3,1.3-3,3v7.9v64.1c0,4.4-3.6,8.1-8.1,8.1
		c-4.4,0-8.1-3.6-8.1-8.1V82c0-1.6-1.3-3-3-3s-3,1.3-3,3v54.4h-2c-3.8,0-6.8-3.1-6.8-6.8l0-13.1c0-4,0-6.9,0-12c0-2.3,0-4.7-0.1-7
		c-0.1-4.7-0.2-9.5,0.1-14.2c0.1-1.9,0.5-4.1,1.1-6.4c2-7.1,7.2-13.3,14-16.5c1.7-0.8,3.4-1.5,5.2-2.2c1.9-0.7,3.8-1.5,5.7-2.4
		c2-0.9,4.1-2.1,6.4-3.5c1.3,0.7,2.6,1.4,3.9,2c3.9,1.7,7.4,3,10.3,4c2.2,0.8,4.2,1.5,5.1,2c7.1,3.8,12.3,9.9,14.1,16.6
		c0.6,2.2,1,4.4,1.1,6.4C621.1,87.9,621,92.7,620.9,97.4z" />
		<path class="st0" d="M97.3,323.6c-2.3-8.3-8.5-15.7-17-20.3c-1.3-0.7-3.3-1.4-5.9-2.4c-2.8-1-6.3-2.2-9.9-3.9
		c-0.2-0.1-0.4-0.2-0.7-0.3c5.1-3.8,9-8.1,11.7-12.7c2.1-3.7,3.3-8.1,3.3-12.4c0-11.2-9.1-20.4-20.4-20.4
		c-11.2,0-20.4,9.1-20.4,20.4c0,4.6,1.7,10.2,4.4,14.4c2.6,4,6.1,7.7,10.2,10.8c-1.2,0.7-2.4,1.3-3.5,1.8c-1.7,0.8-3.4,1.5-5.3,2.2
		c-1.9,0.7-3.8,1.4-5.7,2.3c-8.3,4-14.8,11.6-17.2,20.3c-0.7,2.6-1.2,5.2-1.3,7.6c-0.3,4.9-0.2,9.9-0.1,14.7c0,2.3,0.1,4.6,0.1,6.9
		c0,5.1,0,8,0,12l0,13.1c0,7,5.7,12.8,12.8,12.8h2v64.3c0,7.7,6.3,14,14,14c4.5,0,8.5-2.1,11-5.4c2.6,3.3,6.6,5.4,11,5.4
		c7.7,0,14-6.3,14-14v-24.4l0-14.6v-25.2h1.3c7,0,12.8-5.7,12.8-12.8l0-13.1c0-4,0-6.9,0-12c0-2.3,0-4.6,0.1-6.9
		c0.1-4.8,0.2-9.8-0.1-14.7C98.5,328.8,98,326.2,97.3,323.6z M47.5,282.8c-2.1-3.2-3.5-7.7-3.5-11.1c0-8,6.5-14.4,14.4-14.4
		c8,0,14.4,6.5,14.4,14.4c0,3.2-0.9,6.6-2.5,9.4c-2.7,4.6-6.8,8.8-12.2,12.5C53.9,290.6,50.1,286.9,47.5,282.8z M92.8,345.7
		c0,2.4-0.1,4.7-0.1,7c0,5.1,0,8,0,12l0,13.1c0,3.8-3.1,6.8-6.8,6.8h-1.3v-54.4c0-1.6-1.3-3-3-3c-1.6,0-3,1.3-3,3l0,124.6
		c0,4.4-3.6,8.1-8.1,8.1c-4.4,0-8.1-3.6-8.1-8.1v-64.1v-7.9c0-1.6-1.3-3-3-3s-3,1.3-3,3v7.9v64.1c0,4.4-3.6,8.1-8.1,8.1
		c-4.4,0-8.1-3.6-8.1-8.1V330.4c0-1.6-1.3-3-3-3c-1.6,0-3,1.3-3,3v54.4h-2c-3.8,0-6.8-3.1-6.8-6.8l0-13.1c0-4,0-6.9,0-12
		c0-2.3,0-4.7-0.1-7c-0.1-4.7-0.2-9.5,0.1-14.2c0.1-1.9,0.5-4.1,1.1-6.4c2-7.1,7.2-13.3,14-16.5c1.7-0.8,3.4-1.5,5.2-2.2
		c1.9-0.7,3.8-1.5,5.7-2.4c2-0.9,4.1-2.1,6.4-3.5c1.3,0.7,2.6,1.4,3.9,2c3.9,1.7,7.4,3,10.3,4c2.2,0.8,4.2,1.5,5.1,2
		c7.1,3.8,12.3,9.9,14.1,16.6c0.6,2.2,1,4.4,1.1,6.4C93,336.2,92.9,341,92.8,345.7z" />
		<path class="st0" d="M230.4,323.6c-2.3-8.3-8.5-15.7-17-20.3c-1.3-0.7-3.3-1.4-5.9-2.4c-2.8-1-6.3-2.2-9.9-3.9
		c-0.2-0.1-0.4-0.2-0.7-0.3c5.1-3.8,9-8.1,11.7-12.7c2.1-3.7,3.3-8.1,3.3-12.4c0-11.2-9.1-20.4-20.4-20.4
		c-11.2,0-20.4,9.1-20.4,20.4c0,4.6,1.7,10.2,4.4,14.4c2.6,4,6.1,7.7,10.2,10.8c-1.2,0.7-2.4,1.3-3.5,1.8c-1.7,0.8-3.4,1.5-5.3,2.2
		c-1.9,0.7-3.8,1.4-5.7,2.3c-8.3,4-14.8,11.6-17.2,20.3c-0.7,2.6-1.2,5.2-1.3,7.6c-0.3,4.9-0.2,9.9-0.1,14.7c0,2.3,0.1,4.6,0.1,6.9
		c0,5.1,0,8,0,12l0,13.1c0,7,5.7,12.8,12.8,12.8h2v64.3c0,7.7,6.3,14,14,14c4.5,0,8.5-2.1,11-5.4c2.6,3.3,6.6,5.4,11,5.4
		c7.7,0,14-6.3,14-14v-24.4l0-14.6v-25.2h1.3c7,0,12.8-5.7,12.8-12.8l0-13.1c0-4,0-6.9,0-12c0-2.3,0-4.6,0.1-6.9
		c0.1-4.8,0.2-9.8-0.1-14.7C231.6,328.8,231.1,326.2,230.4,323.6z M180.6,282.8c-2.1-3.2-3.5-7.7-3.5-11.1c0-8,6.5-14.4,14.4-14.4
		c8,0,14.4,6.5,14.4,14.4c0,3.2-0.9,6.6-2.5,9.4c-2.7,4.6-6.8,8.8-12.2,12.5C187,290.6,183.2,286.9,180.6,282.8z M225.9,345.7
		c0,2.4-0.1,4.7-0.1,7c0,5.1,0,8,0,12l0,13.1c0,3.8-3.1,6.8-6.8,6.8h-1.3v-54.4c0-1.6-1.3-3-3-3c-1.6,0-3,1.3-3,3l0,124.6
		c0,4.4-3.6,8.1-8.1,8.1c-4.4,0-8.1-3.6-8.1-8.1v-64.1v-7.9c0-1.6-1.3-3-3-3c-1.6,0-3,1.3-3,3v7.9v64.1c0,4.4-3.6,8.1-8.1,8.1
		c-4.4,0-8.1-3.6-8.1-8.1V330.4c0-1.6-1.3-3-3-3c-1.6,0-3,1.3-3,3v54.4h-2c-3.8,0-6.8-3.1-6.8-6.8l0-13.1c0-4,0-6.9,0-12
		c0-2.3,0-4.7-0.1-7c-0.1-4.7-0.2-9.5,0.1-14.2c0.1-1.9,0.5-4.1,1.1-6.4c2-7.1,7.2-13.3,14-16.5c1.7-0.8,3.4-1.5,5.2-2.2
		c1.9-0.7,3.8-1.5,5.7-2.4c2-0.9,4.1-2.1,6.4-3.5c1.3,0.7,2.6,1.4,3.9,2c3.9,1.7,7.4,3,10.3,4c2.2,0.8,4.2,1.5,5.1,2
		c7.1,3.8,12.3,9.9,14.1,16.6c0.6,2.2,1,4.4,1.1,6.4C226,336.2,226,341,225.9,345.7z" />
		<path class="st0" d="M363.5,323.6c-2.3-8.3-8.5-15.7-17-20.3c-1.3-0.7-3.3-1.4-5.9-2.4c-2.8-1-6.3-2.2-9.9-3.9
		c-0.2-0.1-0.4-0.2-0.7-0.3c5.1-3.8,9-8.1,11.7-12.7c2.1-3.7,3.3-8.1,3.3-12.4c0-11.2-9.1-20.4-20.4-20.4
		c-11.2,0-20.4,9.1-20.4,20.4c0,4.6,1.7,10.2,4.4,14.4c2.6,4,6.1,7.7,10.2,10.8c-1.2,0.7-2.4,1.3-3.5,1.8c-1.7,0.8-3.4,1.5-5.3,2.2
		c-1.9,0.7-3.8,1.4-5.7,2.3c-8.3,4-14.8,11.6-17.2,20.3c-0.7,2.6-1.2,5.2-1.3,7.6c-0.3,4.9-0.2,9.9-0.1,14.7c0,2.3,0.1,4.6,0.1,6.9
		c0,5.1,0,8,0,12l0,13.1c0,7,5.7,12.8,12.8,12.8h2v64.3c0,7.7,6.3,14,14,14c4.5,0,8.5-2.1,11-5.4c2.6,3.3,6.6,5.4,11,5.4
		c7.7,0,14-6.3,14-14v-24.4l0-14.6v-25.2h1.3c7,0,12.8-5.7,12.8-12.8l0-13.1c0-4,0-6.9,0-12c0-2.3,0-4.6,0.1-6.9
		c0.1-4.8,0.2-9.8-0.1-14.7C364.6,328.8,364.2,326.2,363.5,323.6z M313.6,282.8c-2.1-3.2-3.5-7.7-3.5-11.1c0-8,6.5-14.4,14.4-14.4
		c8,0,14.4,6.5,14.4,14.4c0,3.2-0.9,6.6-2.5,9.4c-2.7,4.6-6.8,8.8-12.2,12.5C320,290.6,316.3,286.9,313.6,282.8z M358.9,345.7
		c0,2.4-0.1,4.7-0.1,7c0,5.1,0,8,0,12l0,13.1c0,3.8-3.1,6.8-6.8,6.8h-1.3v-54.4c0-1.6-1.3-3-3-3s-3,1.3-3,3l0,124.6
		c0,4.4-3.6,8.1-8.1,8.1c-4.4,0-8.1-3.6-8.1-8.1v-64.1v-7.9c0-1.6-1.3-3-3-3s-3,1.3-3,3v7.9v64.1c0,4.4-3.6,8.1-8.1,8.1
		c-4.4,0-8.1-3.6-8.1-8.1V330.4c0-1.6-1.3-3-3-3c-1.6,0-3,1.3-3,3v54.4h-2c-3.8,0-6.8-3.1-6.8-6.8l0-13.1c0-4,0-6.9,0-12
		c0-2.3,0-4.7-0.1-7c-0.1-4.7-0.2-9.5,0.1-14.2c0.1-1.9,0.5-4.1,1.1-6.4c2-7.1,7.2-13.3,14-16.5c1.7-0.8,3.4-1.5,5.2-2.2
		c1.9-0.7,3.8-1.5,5.7-2.4c2-0.9,4.1-2.1,6.4-3.5c1.3,0.7,2.6,1.4,3.9,2c3.9,1.7,7.4,3,10.3,4c2.2,0.8,4.2,1.5,5.1,2
		c7.1,3.8,12.3,9.9,14.1,16.6c0.6,2.2,1,4.4,1.1,6.4C359.1,336.2,359,341,358.9,345.7z" />
		<path class="st0" d="M496.5,323.6c-2.3-8.3-8.5-15.7-17-20.3c-1.3-0.7-3.3-1.4-5.9-2.4c-2.8-1-6.3-2.2-9.9-3.9
		c-0.2-0.1-0.4-0.2-0.7-0.3c5.1-3.8,9-8.1,11.7-12.7c2.1-3.7,3.3-8.1,3.3-12.4c0-11.2-9.1-20.4-20.4-20.4
		c-11.2,0-20.4,9.1-20.4,20.4c0,4.6,1.7,10.2,4.4,14.4c2.6,4,6.1,7.7,10.2,10.8c-1.2,0.7-2.4,1.3-3.5,1.8c-1.7,0.8-3.4,1.5-5.3,2.2
		c-1.9,0.7-3.8,1.4-5.7,2.3c-8.3,4-14.8,11.6-17.2,20.3c-0.7,2.6-1.2,5.2-1.3,7.6c-0.3,4.9-0.2,9.9-0.1,14.7c0,2.3,0.1,4.6,0.1,6.9
		c0,5.1,0,8,0,12l0,13.1c0,7,5.7,12.8,12.8,12.8h2v64.3c0,7.7,6.3,14,14,14c4.5,0,8.5-2.1,11-5.4c2.6,3.3,6.6,5.4,11,5.4
		c7.7,0,14-6.3,14-14v-24.4l0-14.6v-25.2h1.3c7,0,12.8-5.7,12.8-12.8l0-13.1c0-4,0-6.9,0-12c0-2.3,0-4.6,0.1-6.9
		c0.1-4.8,0.2-9.8-0.1-14.7C497.7,328.8,497.2,326.2,496.5,323.6z M446.7,282.8c-2.1-3.2-3.5-7.7-3.5-11.1c0-8,6.5-14.4,14.4-14.4
		c8,0,14.4,6.5,14.4,14.4c0,3.2-0.9,6.6-2.5,9.4c-2.7,4.6-6.8,8.8-12.2,12.5C453.1,290.6,449.3,286.9,446.7,282.8z M492,345.7
		c0,2.4-0.1,4.7-0.1,7c0,5.1,0,8,0,12l0,13.1c0,3.8-3.1,6.8-6.8,6.8h-1.3v-54.4c0-1.6-1.3-3-3-3c-1.6,0-3,1.3-3,3l0,124.6
		c0,4.4-3.6,8.1-8.1,8.1c-4.4,0-8.1-3.6-8.1-8.1v-64.1v-7.9c0-1.6-1.3-3-3-3c-1.6,0-3,1.3-3,3v7.9v64.1c0,4.4-3.6,8.1-8.1,8.1
		c-4.4,0-8.1-3.6-8.1-8.1V330.4c0-1.6-1.3-3-3-3c-1.6,0-3,1.3-3,3v54.4h-2c-3.8,0-6.8-3.1-6.8-6.8l0-13.1c0-4,0-6.9,0-12
		c0-2.3,0-4.7-0.1-7c-0.1-4.7-0.2-9.5,0.1-14.2c0.1-1.9,0.5-4.1,1.1-6.4c2-7.1,7.2-13.3,14-16.5c1.7-0.8,3.4-1.5,5.2-2.2
		c1.9-0.7,3.8-1.5,5.7-2.4c2-0.9,4.1-2.1,6.4-3.5c1.3,0.7,2.6,1.4,3.9,2c3.9,1.7,7.4,3,10.3,4c2.2,0.8,4.2,1.5,5.1,2
		c7.1,3.8,12.3,9.9,14.1,16.6c0.6,2.2,1,4.4,1.1,6.4C492.2,336.2,492.1,341,492,345.7z" />
		<path class="st0" d="M625.4,323.6c-2.3-8.3-8.5-15.7-17-20.3c-1.3-0.7-3.3-1.4-5.9-2.4c-2.8-1-6.3-2.2-9.9-3.9
		c-0.2-0.1-0.4-0.2-0.7-0.3c5.1-3.8,9-8.1,11.7-12.7c2.1-3.7,3.3-8.1,3.3-12.4c0-11.2-9.1-20.4-20.4-20.4
		c-11.2,0-20.4,9.1-20.4,20.4c0,4.6,1.7,10.2,4.4,14.4c2.6,4,6.1,7.7,10.2,10.8c-1.2,0.7-2.4,1.3-3.5,1.8c-1.7,0.8-3.4,1.5-5.3,2.2
		c-1.9,0.7-3.8,1.4-5.7,2.3c-8.3,4-14.8,11.6-17.2,20.3c-0.7,2.6-1.2,5.2-1.3,7.6c-0.3,4.9-0.2,9.9-0.1,14.7c0,2.3,0.1,4.6,0.1,6.9
		c0,5.1,0,8,0,12l0,13.1c0,7,5.7,12.8,12.8,12.8h2v64.3c0,7.7,6.3,14,14,14c4.5,0,8.5-2.1,11-5.4c2.6,3.3,6.6,5.4,11,5.4
		c7.7,0,14-6.3,14-14v-24.4l0-14.6v-25.2h1.3c7,0,12.8-5.7,12.8-12.8l0-13.1c0-4,0-6.9,0-12c0-2.3,0-4.6,0.1-6.9
		c0.1-4.8,0.2-9.8-0.1-14.7C626.6,328.8,626.1,326.2,625.4,323.6z M575.6,282.8c-2.1-3.2-3.5-7.7-3.5-11.1c0-8,6.5-14.4,14.4-14.4
		c8,0,14.4,6.5,14.4,14.4c0,3.2-0.9,6.6-2.5,9.4c-2.7,4.6-6.8,8.8-12.2,12.5C582,290.6,578.2,286.9,575.6,282.8z M620.9,345.7
		c0,2.4-0.1,4.7-0.1,7c0,5.1,0,8,0,12l0,13.1c0,3.8-3.1,6.8-6.8,6.8h-1.3v-54.4c0-1.6-1.3-3-3-3s-3,1.3-3,3l0,124.6
		c0,4.4-3.6,8.1-8.1,8.1c-4.4,0-8.1-3.6-8.1-8.1v-64.1v-7.9c0-1.6-1.3-3-3-3s-3,1.3-3,3v7.9v64.1c0,4.4-3.6,8.1-8.1,8.1
		c-4.4,0-8.1-3.6-8.1-8.1V330.4c0-1.6-1.3-3-3-3c-1.6,0-3,1.3-3,3v54.4h-2c-3.8,0-6.8-3.1-6.8-6.8l0-13.1c0-4,0-6.9,0-12
		c0-2.3,0-4.7-0.1-7c-0.1-4.7-0.2-9.5,0.1-14.2c0.1-1.9,0.5-4.1,1.1-6.4c2-7.1,7.2-13.3,14-16.5c1.7-0.8,3.4-1.5,5.2-2.2
		c1.9-0.7,3.8-1.5,5.7-2.4c2-0.9,4.1-2.1,6.4-3.5c1.3,0.7,2.6,1.4,3.9,2c3.9,1.7,7.4,3,10.3,4c2.2,0.8,4.2,1.5,5.1,2
		c7.1,3.8,12.3,9.9,14.1,16.6c0.6,2.2,1,4.4,1.1,6.4C621.1,336.2,621,341,620.9,345.7z" />
	</g>
</svg>