<svg xmlns="http://www.w3.org/2000/svg" viewBox="0 0 176.56 191.27"><defs><style>.cls-1{fill:#404040;}</style></defs><g id="Layer_2" data-name="Layer 2"><g id="Layer_1_copy_2" data-name="Layer 1 copy 2"><path class="cls-1" d="M176.33,123.78,150.81,54.5V33.1a3.65,3.65,0,0,0-3.67-3.67h-3.68v-11a3.67,3.67,0,0,0-3.68-3.68h-3.68v-11A3.65,3.65,0,0,0,132.42,0H44.14a3.67,3.67,0,0,0-3.68,3.67v11H36.78a3.7,3.7,0,0,0-2.6,1.07,3.75,3.75,0,0,0-1.08,2.61v11H29.42a3.68,3.68,0,0,0-2.6,1.07,3.72,3.72,0,0,0-1.07,2.6V54.51L.23,123.78,0,125.06H0v51.5a14.71,14.71,0,0,0,14.71,14.71H161.85a14.72,14.72,0,0,0,14.71-14.71v-51.5Zm-7.18,1.8a7.36,7.36,0,0,1-7.31,6.84h-11V75.79ZM47.81,7.35h80.93v7.36H47.81ZM40.46,22.06H136.1v7.37H40.46ZM33.1,36.78H143.45v95.64H33.1Zm-7.35,39v56.64h-11a7.36,7.36,0,0,1-7.3-6.86ZM169.2,176.56a7.39,7.39,0,0,1-7.35,7.36H14.71a7.39,7.39,0,0,1-7.36-7.36V137.73a14.62,14.62,0,0,0,7.36,2H161.84a14.59,14.59,0,0,0,7.36-2ZM114,147.13a3.67,3.67,0,0,0-3.68,3.68v3.68a7.38,7.38,0,0,1-7.36,7.35H73.57a7.39,7.39,0,0,1-7.37-7.35v-3.68a3.68,3.68,0,1,0-7.36,0v3.68a14.7,14.7,0,0,0,14.72,14.7H103a14.71,14.71,0,0,0,14.71-14.7v-3.68A3.67,3.67,0,0,0,114,147.13Zm14.71-66.21H47.82a3.68,3.68,0,0,0,0,7.36h80.92a3.68,3.68,0,0,0,0-7.36ZM47.82,66.21H84.6a3.68,3.68,0,1,0,0-7.36H47.82a3.68,3.68,0,0,0,0,7.36Zm80.92,29.43H47.82a3.68,3.68,0,1,0,0,7.35h80.92a3.68,3.68,0,0,0,0-7.35ZM99.32,110.35H47.82a3.68,3.68,0,1,0,0,7.35h51.5a3.68,3.68,0,1,0,0-7.35Z"/></g></g></svg>