<svg xmlns="http://www.w3.org/2000/svg" viewBox="0 0 486.23 273.22"><defs><style>.cls-1{fill:#453D42;}.cls-2,.cls-4,.cls-5{fill:none;}.cls-2{stroke:#fff;stroke-width:4px;}.cls-2,.cls-4{stroke-miterlimit:10;}.cls-3{fill:#fff;}.cls-4,.cls-5{stroke:#453D42;stroke-width:3px;}.cls-5{stroke-linecap:round;stroke-linejoin:round;}</style></defs><g id="Layer_2" data-name="Layer 2"><g id="Layer_1_copy_2" data-name="Layer 1 copy 2"><polygon class="cls-1" points="426.08 0 363.88 0 367.05 0 183.41 0 81.08 0 113.42 0 60.16 0 0 111.61 60.16 223.1 113.42 223.1 90.12 223.1 183.41 223.1 367.05 223.1 363.88 223.1 426.08 223.1 486.23 111.61 426.08 0"/><polygon class="cls-2" points="71.01 205.01 20.58 111.61 71.01 18.09 415.33 18.09 465.77 111.61 415.33 205.01 71.01 205.01"/><circle class="cls-3" cx="243.12" cy="231.16" r="42.06"/><circle class="cls-4" cx="232.04" cy="243.6" r="5.5"/><circle class="cls-4" cx="232.04" cy="243.6" r="13.94"/><circle class="cls-4" cx="261.57" cy="253.13" r="4.42"/><polyline class="cls-5" points="221.69 208.05 232.76 208.05 232.76 229.66"/><path class="cls-5" d="M232.76,220.94h19.62a4.78,4.78,0,0,1,4.78,4.77v27.42"/><line class="cls-5" x1="244.64" y1="237.61" x2="261.11" y2="237.61"/><path class="cls-5" d="M240.87,232.81H257a3.71,3.71,0,0,1,3.3,2l6.22,12h5.57"/></g></g></svg>