<svg xmlns="http://www.w3.org/2000/svg" viewBox="0 0 58.74 58.74"><defs><style>.cls-1{fill:#00b174;}</style></defs><g id="Layer_2" data-name="Layer 2"><g id="Layer_1_copy_2" data-name="Layer 1 copy 2"><path class="cls-1" d="M57.61,47.45H1.13a1.14,1.14,0,0,0-.8.33,1.11,1.11,0,0,0-.33.79v9a1.13,1.13,0,0,0,1.13,1.13h11.3a1.11,1.11,0,0,0,.79-.33,1.09,1.09,0,0,0,.33-.8V49.7H45.19v7.91a1.09,1.09,0,0,0,.33.8,1.12,1.12,0,0,0,.8.33H57.61a1.13,1.13,0,0,0,1.13-1.13v-9a1.18,1.18,0,0,0-.33-.81A1.13,1.13,0,0,0,57.61,47.45Zm-46.31,9h-9V49.7h9Zm36.14,0V49.7h9v6.78Zm-5.64,0H16.94a1.13,1.13,0,0,0,0,2.26H41.8a1.13,1.13,0,0,0,0-2.26Zm-3.39-2.26a1.13,1.13,0,0,0,0-2.26H20.33a1.13,1.13,0,0,0,0,2.26ZM6.78,44.06V28.24a1.13,1.13,0,1,0-2.26,0V44.06a1.13,1.13,0,0,0,2.26,0Zm4.52,0V28.24a1.13,1.13,0,1,0-2.26,0V44.06a1.13,1.13,0,0,0,2.26,0Zm9,0V28.24a1.13,1.13,0,0,0-2.26,0V44.06a1.13,1.13,0,1,0,2.26,0Zm4.52,0V28.24a1.13,1.13,0,0,0-2.26,0V44.06a1.13,1.13,0,1,0,2.26,0Zm29.37,0V28.24a1.13,1.13,0,1,0-2.26,0V44.06a1.13,1.13,0,1,0,2.26,0Zm-4.52,0V28.24a1.13,1.13,0,1,0-2.25,0V44.06a1.13,1.13,0,1,0,2.25,0Zm-9,0V28.24a1.13,1.13,0,0,0-2.26,0V44.06a1.13,1.13,0,1,0,2.26,0Zm-4.52,0V28.24a1.13,1.13,0,1,0-2.26,0V44.06a1.13,1.13,0,1,0,2.26,0ZM58.22,18.25,30,.18a1.12,1.12,0,0,0-1.22,0L.52,18.25A1.12,1.12,0,0,0,0,19.2v4.52a1.13,1.13,0,0,0,1.13,1.13H57.61a1.13,1.13,0,0,0,1.13-1.13V19.2A1.15,1.15,0,0,0,58.22,18.25ZM29.37,2.47l24.38,15.6H5ZM56.48,22.59H2.26V20.33H56.48Zm-13.7-8.86L30,5.54a1.12,1.12,0,0,0-1.22,0L16,13.73a1.13,1.13,0,0,0,1.22,1.91L29.37,7.83l12.19,7.81a1.13,1.13,0,0,0,1.22-1.91Z"/></g></g></svg>