<svg xmlns="http://www.w3.org/2000/svg" xmlns:xlink="http://www.w3.org/1999/xlink" viewBox="0 0 611.21 537.69"><defs><style>.cls-1,.cls-2,.cls-4{fill:none;}.cls-2,.cls-4,.cls-5{stroke:#404040;stroke-miterlimit:10;}.cls-2,.cls-5{stroke-width:2px;}.cls-3{clip-path:url(#clip-path);}.cls-5{fill:#fff;}</style><clipPath id="clip-path" transform="translate(134.27 112.03)"><path class="cls-1" d="M9.1,111.13A161.42,161.42,0,1,0,162.36.39V162.77"/></clipPath></defs><g id="Layer_2" data-name="Layer 2"><g id="Layer_1_copy_2" data-name="Layer 1 copy 2"><circle class="cls-2" cx="296.39" cy="274.15" r="161.12"/><g class="cls-3"><line class="cls-4" x1="355.59" y1="29.24" x2="73.03" y2="484"/><line class="cls-4" x1="437.91" y1="29.24" x2="155.35" y2="484"/><line class="cls-4" x1="363.82" y1="29.24" x2="81.26" y2="484"/><line class="cls-4" x1="372.05" y1="29.24" x2="89.49" y2="484"/><line class="cls-4" x1="380.28" y1="29.24" x2="97.72" y2="484"/><line class="cls-4" x1="388.52" y1="29.24" x2="105.96" y2="484"/><line class="cls-4" x1="396.75" y1="29.24" x2="114.19" y2="484"/><line class="cls-4" x1="454.37" y1="29.24" x2="171.81" y2="484"/><line class="cls-4" x1="404.98" y1="29.24" x2="122.42" y2="484"/><line class="cls-4" x1="462.61" y1="29.24" x2="180.05" y2="484"/><line class="cls-4" x1="413.21" y1="29.24" x2="130.65" y2="484"/><line class="cls-4" x1="470.84" y1="29.24" x2="188.28" y2="484"/><line class="cls-4" x1="421.45" y1="29.24" x2="138.89" y2="484"/><line class="cls-4" x1="479.07" y1="29.24" x2="196.51" y2="484"/><line class="cls-4" x1="429.68" y1="29.24" x2="147.12" y2="484"/><line class="cls-4" x1="487.3" y1="29.24" x2="204.74" y2="484"/><line class="cls-4" x1="495.54" y1="29.24" x2="212.98" y2="484"/><line class="cls-4" x1="503.77" y1="29.24" x2="221.21" y2="484"/><line class="cls-4" x1="512" y1="29.24" x2="229.44" y2="484"/><line class="cls-4" x1="520.23" y1="29.24" x2="237.67" y2="484"/><line class="cls-4" x1="528.46" y1="29.24" x2="245.9" y2="484"/><line class="cls-4" x1="536.7" y1="29.24" x2="254.14" y2="484"/><line class="cls-4" x1="544.93" y1="29.24" x2="262.37" y2="484"/><line class="cls-4" x1="553.16" y1="29.24" x2="270.6" y2="484"/><line class="cls-4" x1="561.39" y1="29.24" x2="278.83" y2="484"/><line class="cls-4" x1="446.14" y1="29.24" x2="163.58" y2="484"/><line class="cls-4" x1="569.62" y1="29.24" x2="287.07" y2="484"/><line class="cls-4" x1="577.86" y1="29.24" x2="295.3" y2="484"/><line class="cls-4" x1="586.09" y1="29.24" x2="303.53" y2="484"/><line class="cls-4" x1="594.32" y1="29.24" x2="311.76" y2="484"/><line class="cls-4" x1="602.55" y1="29.24" x2="319.99" y2="484"/><line class="cls-4" x1="610.79" y1="29.24" x2="328.23" y2="484"/><line class="cls-4" x1="282.98" y1="0.26" x2="0.42" y2="455.02"/><line class="cls-4" x1="291.22" y1="0.26" x2="8.66" y2="455.02"/><line class="cls-4" x1="299.45" y1="0.26" x2="16.89" y2="455.02"/><line class="cls-4" x1="307.68" y1="0.26" x2="25.12" y2="455.02"/><line class="cls-4" x1="315.91" y1="0.26" x2="33.35" y2="455.02"/><line class="cls-4" x1="324.15" y1="0.26" x2="41.59" y2="455.02"/><line class="cls-4" x1="332.38" y1="0.26" x2="49.82" y2="455.02"/><line class="cls-4" x1="340.61" y1="0.26" x2="58.05" y2="455.02"/><line class="cls-4" x1="348.84" y1="0.26" x2="66.28" y2="455.02"/><line class="cls-4" x1="357.07" y1="0.26" x2="74.51" y2="455.02"/><line class="cls-4" x1="365.31" y1="0.26" x2="82.75" y2="455.02"/><line class="cls-4" x1="585.1" y1="82.67" x2="302.54" y2="537.42"/><line class="cls-4" x1="593.33" y1="82.67" x2="310.77" y2="537.42"/><line class="cls-4" x1="601.56" y1="82.67" x2="319" y2="537.42"/><line class="cls-4" x1="609.8" y1="82.67" x2="327.24" y2="537.42"/></g><path class="cls-1" d="M162.12,162.12V1A161.13,161.13,0,0,1,323.24,162.12H162.12Z" transform="translate(134.27 112.03)"/><circle class="cls-5" cx="296.39" cy="274.15" r="110.81"/></g></g></svg>