<svg xmlns="http://www.w3.org/2000/svg" viewBox="0 0 42.36 105.07"><defs><style>.cls-1{fill:#00b174;}</style></defs><g id="Layer_2" data-name="Layer 2"><g id="Layer_1_copy_2" data-name="Layer 1 copy 2"><path class="cls-1" d="M21.18,0A11.82,11.82,0,1,0,33.09,11.82,11.88,11.88,0,0,0,21.18,0Zm0,21a9.19,9.19,0,1,1,9.27-9.19A9.24,9.24,0,0,1,21.18,21Z"/><path class="cls-1" d="M33.09,26.27H9.27A9.24,9.24,0,0,0,0,35.46V60.41c0,4.47,3.61,10,7.94,11V98.5a6.6,6.6,0,0,0,6.62,6.57h1.33a6.61,6.61,0,0,0,5.29-2.67,6.61,6.61,0,0,0,5.3,2.67H27.8a6.6,6.6,0,0,0,6.62-6.57V71.41c4.34-1,7.94-6.53,7.94-11V35.46A9.24,9.24,0,0,0,33.09,26.27Zm6.62,34.14c0,3.35-2.63,7.22-5.29,8.26V38.74a1.33,1.33,0,0,0-2.65,0V98.5a4,4,0,0,1-4,3.94H26.48a4,4,0,0,1-4-3.94V68.29a1.32,1.32,0,0,0-2.64,0V98.5a4,4,0,0,1-4,3.94H14.56a4,4,0,0,1-4-3.94V38.74a1.33,1.33,0,0,0-2.65,0V68.67c-2.66-1-5.29-4.91-5.29-8.26V35.46a6.6,6.6,0,0,1,6.62-6.57H33.09a6.6,6.6,0,0,1,6.62,6.57Z"/></g></g></svg>